<svg width="900" height="349" viewBox="0 0 900 349" fill="none" xmlns="http://www.w3.org/2000/svg">
<path d="M0.213069 195.909V186.818L155.895 85.6818V96.4773L8.7358 191.932L10.4403 189.091V193.636L8.7358 190.795L155.895 286.25V297.045L0.213069 195.909ZM335.866 86.8182V120.909H216.69V86.8182H335.866ZM248.651 34.5455H291.122V240.938C291.122 249.176 292.353 255.379 294.815 259.545C297.277 263.617 300.45 266.411 304.332 267.926C308.31 269.347 312.618 270.057 317.259 270.057C320.668 270.057 323.651 269.82 326.207 269.347C328.764 268.873 330.753 268.494 332.173 268.21L339.844 303.295C337.382 304.242 333.878 305.189 329.332 306.136C324.787 307.178 319.105 307.746 312.287 307.841C301.113 308.03 290.696 306.042 281.037 301.875C271.378 297.708 263.565 291.269 257.599 282.557C251.634 273.845 248.651 262.907 248.651 249.744V34.5455ZM542.827 140.085L504.332 146.903C502.723 141.979 500.166 137.292 496.662 132.841C493.253 128.39 488.613 124.744 482.741 121.903C476.87 119.062 469.531 117.642 460.724 117.642C448.698 117.642 438.66 120.341 430.611 125.739C422.562 131.042 418.537 137.907 418.537 146.335C418.537 153.627 421.236 159.498 426.634 163.949C432.031 168.4 440.743 172.045 452.77 174.886L487.429 182.841C507.505 187.481 522.467 194.631 532.315 204.29C542.164 213.949 547.088 226.496 547.088 241.932C547.088 255 543.3 266.648 535.724 276.875C528.243 287.008 517.779 294.962 504.332 300.739C490.98 306.515 475.497 309.403 457.884 309.403C433.452 309.403 413.518 304.195 398.082 293.778C382.647 283.267 373.177 268.352 369.673 249.034L410.724 242.784C413.281 253.485 418.537 261.581 426.491 267.074C434.446 272.472 444.815 275.17 457.599 275.17C471.52 275.17 482.647 272.282 490.98 266.506C499.313 260.634 503.48 253.485 503.48 245.057C503.48 238.239 500.923 232.509 495.81 227.869C490.791 223.229 483.073 219.725 472.656 217.358L435.724 209.261C415.365 204.621 400.308 197.235 390.554 187.102C380.895 176.97 376.065 164.138 376.065 148.608C376.065 135.729 379.664 124.46 386.861 114.801C394.058 105.142 404.001 97.6136 416.69 92.2159C429.38 86.7235 443.916 83.9773 460.298 83.9773C483.878 83.9773 502.438 89.0909 515.98 99.3182C529.522 109.451 538.471 123.04 542.827 140.085ZM681.712 0.454526L587.962 348.75H578.303L672.053 0.454526H681.712ZM899.645 195.909L743.963 297.045V286.25L891.122 190.795L889.418 193.636V189.091L891.122 191.932L743.963 96.4773V85.6818L899.645 186.818V195.909Z" fill="black"/>
</svg>
